<?xml version="1.0" standalone="no"?>
<!DOCTYPE svg PUBLIC "-//W3C//DTD SVG 20010904//EN"
 "http://www.w3.org/TR/2001/REC-SVG-20010904/DTD/svg10.dtd">
<svg version="1.0" xmlns="http://www.w3.org/2000/svg"
 width="16.000000pt" height="16.000000pt" viewBox="0 0 16.000000 16.000000"
 preserveAspectRatio="xMidYMid meet">
<metadata>
Created by potrace 1.11, written by Peter Selinger 2001-2013
</metadata>
<g transform="translate(0.000000,16.000000) scale(0.005333,-0.005333)"
fill="#000000" stroke="none">
<path d="M1085 2202 c-3 -3 -24 -6 -47 -7 -59 -3 -161 -31 -236 -66 -35 -16
-67 -29 -70 -29 -4 0 -24 -11 -45 -25 -20 -14 -37 -23 -37 -20 0 4 -28 -13
-62 -37 -87 -60 -198 -174 -226 -231 -28 -57 -37 -156 -16 -185 16 -23 47 -33
65 -21 12 8 11 12 -3 23 -61 46 -34 167 58 266 45 48 179 145 237 171 15 7 27
16 27 22 0 5 7 7 15 3 8 -3 15 0 15 6 0 6 3 8 7 5 3 -4 13 -1 22 7 17 14 180
64 241 74 107 16 253 -1 289 -36 10 -9 23 -18 30 -20 37 -8 154 -153 137 -169
-3 -4 -14 -7 -24 -8 -9 0 -22 -4 -27 -7 -6 -3 -35 -13 -65 -23 -30 -10 -60
-21 -65 -26 -6 -4 -37 -18 -70 -30 -33 -12 -63 -26 -66 -31 -3 -5 -16 -10 -29
-13 -12 -2 -30 -11 -40 -20 -9 -8 -20 -15 -24 -15 -8 0 -168 -100 -176 -110
-3 -4 -12 -11 -21 -16 -49 -28 -249 -218 -299 -284 -37 -49 -61 -90 -52 -90 4
0 1 -4 -6 -9 -7 -4 -15 -14 -16 -22 -2 -8 -6 -25 -10 -40 -11 -40 -13 -121 -4
-159 5 -19 11 -43 13 -54 23 -100 116 -196 205 -213 13 -2 26 -6 28 -8 2 -2
15 0 28 5 16 6 24 6 24 -1 0 -6 6 -6 19 0 10 6 21 8 24 5 3 -3 34 2 69 11 34
9 68 18 73 19 31 7 55 18 55 26 0 5 9 7 20 5 11 -2 20 0 20 5 0 5 13 16 29 25
16 8 35 20 43 27 7 7 32 25 55 40 39 25 166 149 222 215 57 67 123 220 147
340 31 154 21 390 -18 414 -9 6 41 28 77 35 6 1 28 7 50 12 22 6 60 14 84 17
23 3 46 7 50 9 3 2 31 5 61 7 30 1 60 5 65 8 6 3 24 6 40 7 17 2 71 6 120 10
50 3 184 7 299 8 140 1 211 5 213 12 2 6 -2 11 -9 11 -7 0 -67 4 -133 8 -136
9 -262 9 -350 1 -168 -14 -202 -17 -230 -22 -16 -3 -46 -6 -65 -8 -19 -2 -51
-6 -70 -10 -19 -4 -48 -9 -65 -10 -16 -2 -30 -5 -30 -6 0 -1 -7 -3 -15 -5 -8
-2 -35 -8 -59 -13 -35 -8 -47 -8 -58 4 -8 8 -12 14 -8 14 3 0 1 6 -5 13 -6 6
-25 31 -43 53 -81 105 -176 151 -329 159 -26 1 -50 0 -53 -3z m425 -317 c0 -8
4 -15 9 -15 10 0 21 -49 28 -120 2 -25 5 -56 7 -70 2 -14 -1 -31 -7 -37 -6 -9
-6 -13 2 -13 7 0 9 -5 5 -12 -4 -6 -9 -32 -10 -57 -1 -25 -5 -57 -8 -71 -4
-14 -8 -34 -10 -45 -14 -64 -76 -215 -89 -215 -4 0 -5 -4 -2 -10 3 -5 2 -10
-3 -10 -5 0 -13 -9 -18 -19 -22 -47 -207 -241 -230 -241 -3 0 -14 -9 -26 -20
-12 -10 -25 -17 -30 -14 -4 3 -8 1 -8 -4 0 -11 -60 -38 -74 -34 -5 2 -16 -3
-25 -11 -29 -24 -100 -57 -131 -59 -17 -1 -30 -5 -30 -9 0 -8 -154 -9 -160 0
-7 9 -59 41 -66 41 -20 -3 -89 104 -78 122 4 6 3 8 -3 5 -7 -4 -14 8 -18 31
-11 52 -13 182 -3 182 4 0 8 7 8 16 0 24 59 124 95 160 16 17 42 44 56 60 73
81 242 215 354 279 28 16 53 33 56 38 3 5 9 8 13 8 3 -1 34 13 68 29 34 17 67
30 75 30 7 0 13 5 13 10 0 5 3 9 8 8 4 0 16 3 27 7 41 18 190 74 198 75 4 0 7
-7 7 -15z m-475 -1035 c3 -5 1 -10 -4 -10 -6 0 -11 5 -11 10 0 6 2 10 4 10 3
0 8 -4 11 -10z"/>
</g>
</svg>
