<?xml version="1.0" standalone="no"?>
<!DOCTYPE svg PUBLIC "-//W3C//DTD SVG 20010904//EN"
 "http://www.w3.org/TR/2001/REC-SVG-20010904/DTD/svg10.dtd">
<svg version="1.0" xmlns="http://www.w3.org/2000/svg"
 width="16.000000pt" height="16.000000pt" viewBox="0 0 16.000000 16.000000"
 preserveAspectRatio="xMidYMid meet">
<metadata>
Created by potrace 1.11, written by Peter Selinger 2001-2013
</metadata>
<g transform="translate(0.000000,16.000000) scale(0.008000,-0.008000)"
fill="#000000" stroke="none">
<path d="M0 1000 l0 -1000 538 2 c295 1 520 3 500 5 -21 2 -38 6 -38 8 0 4
150 277 220 400 140 247 155 264 222 251 20 -4 39 -13 42 -22 6 -15 -43 -119
-93 -199 -43 -68 -241 -427 -241 -436 0 -5 191 -9 425 -9 l425 0 0 1000 0
1000 -1000 0 -1000 0 0 -1000z m1163 788 c4 -10 8 -9 16 2 9 12 11 11 11 -7 0
-13 5 -23 10 -23 6 0 10 -7 10 -15 0 -8 -6 -15 -12 -15 -10 0 -10 -2 0 -8 8
-5 10 -16 6 -27 -5 -13 -4 -16 4 -11 7 4 12 2 12 -4 0 -7 10 -20 21 -29 20
-16 20 -18 5 -33 -16 -16 -61 -13 -50 3 3 5 -2 9 -11 9 -19 0 -45 -23 -45 -39
0 -6 -4 -11 -10 -11 -5 0 -7 -13 -3 -30 3 -19 1 -30 -6 -30 -6 0 -11 -5 -11
-11 0 -7 7 -8 18 -4 9 3 35 9 57 11 22 3 46 7 54 10 8 2 21 -2 31 -11 12 -11
24 -12 48 -6 26 8 32 7 32 -5 0 -11 6 -13 21 -9 18 6 20 4 14 -15 -5 -17 -4
-20 5 -15 9 5 11 4 6 -3 -4 -6 1 -23 10 -37 9 -14 13 -25 9 -25 -4 0 -2 -7 5
-15 10 -12 10 -18 0 -30 -9 -10 -9 -15 -1 -15 6 0 11 -7 11 -15 0 -8 5 -15 10
-15 12 0 13 -30 1 -49 -11 -17 -128 -26 -146 -11 -7 6 -19 8 -27 5 -19 -7 -40
17 -42 49 -1 23 -1 23 -46 9 -25 -8 -54 -16 -65 -19 -19 -4 -19 -4 -1 4 19 8
19 9 1 16 -16 6 -17 9 -5 16 20 13 22 57 3 64 -8 3 -19 4 -24 1 -5 -4 -6 1 -3
10 5 11 2 14 -10 9 -22 -9 -20 12 4 36 11 11 20 30 20 43 0 13 -3 17 -8 10 -5
-8 -11 -3 -19 13 -6 13 -7 24 -2 24 5 0 9 5 9 11 0 5 -3 8 -8 5 -4 -2 -6 13
-4 35 2 21 8 42 13 45 5 3 9 16 9 29 0 13 7 28 17 33 10 6 14 16 10 26 -7 18
18 76 32 76 5 0 12 -6 14 -12z m254 -136 c7 -5 -2 -15 -28 -30 l-41 -23 4 23
c4 31 39 47 65 30z m-92 -92 c3 -5 1 -10 -4 -10 -6 0 -11 5 -11 10 0 6 2 10 4
10 3 0 8 -4 11 -10z m-709 -280 c27 -90 29 -105 30 -295 0 -110 3 -211 5 -224
3 -21 -1 -26 -29 -34 -18 -6 -34 -8 -36 -6 -2 2 -7 155 -10 339 -4 193 -3 331
2 325 5 -6 22 -53 38 -105z m188 -470 c8 -25 18 -54 22 -64 7 -17 3 -18 -42
-11 -27 4 -61 9 -76 10 -35 2 -44 11 -28 29 6 9 11 37 10 63 -2 26 -2 84 -1
128 l2 80 49 -94 c27 -52 56 -115 64 -141z"/>
<path d="M1270 1474 c0 -8 5 -12 10 -9 6 3 10 10 10 16 0 5 -4 9 -10 9 -5 0
-10 -7 -10 -16z"/>
<path d="M1240 1430 c0 -5 5 -10 10 -10 6 0 10 5 10 10 0 6 -4 10 -10 10 -5 0
-10 -4 -10 -10z"/>
<path d="M1200 1359 c0 -5 5 -7 10 -4 6 3 10 8 10 11 0 2 -4 4 -10 4 -5 0 -10
-5 -10 -11z"/>
<path d="M1266 1331 c-4 -5 -2 -12 3 -15 5 -4 12 -2 15 3 4 5 2 12 -3 15 -5 4
-12 2 -15 -3z"/>
<path d="M1325 1290 c3 -5 8 -10 11 -10 2 0 4 5 4 10 0 6 -5 10 -11 10 -5 0
-7 -4 -4 -10z"/>
</g>
</svg>
